PathFileType	4	(X/Y/Z)	C:/Users/beibeiliu/ov580/test_trc\sequence.19_training_dense_left.trc
DataRate	CameraRate	NumFrames	NumMarkers	Units	OrigDataRate	OrigDataStartFrame	OrigNumFrames
120	120	24	19	mm	120	216	344
Frame#	Time	ThumbCMC			ThumbMCP			ThumbIP			ThumbTip			IndexMCP			IndexPIP			IndexTip			MiddleMCP			MiddlePIP			MiddleTip			RingMCP			RingPIP			RingTip			PinkyMCP			PinkyPIP			PinkyTip			BackHand1			BackHand2			BackHand3	
		X0	Y0	Z0	X1	Y1	Z1	X2	Y2	Z2	X3	Y3	Z3	X4	Y4	Z4	X5	Y5	Z5	X6	Y6	Z6	X7	Y7	Z7	X8	Y8	Z8	X9	Y9	Z9	X10	Y10	Z10	X11	Y11	Z11	X12	Y12	Z12	X13	Y13	Z13	X14	Y14	Z14	X15	Y15	Z15	X16	Y16	Z16	X17	Y17	Z17	X18	Y18	Z18	
215	1.79167	-241.023	72.2779	-4.40948	-230.249	84.2598	-27.3397	-222.971	85.2985	-49.6597	-214.457	86.0286	-66.0143	-224.415	57.1644	-61.8572	-198.292	67.9264	-61.6034	-207.525	70.0243	-33.7317	-206.209	42.6997	-58.9747	-186.681	59.3768	-51.8013	-206.679	63.8911	-22.7561	-195.381	35.0064	-47.4508	-183.321	51.0446	-31.8725	-204.976	57.5073	-15.0027	-190.328	23.0178	-32.4898	-182.679	43.9097	-24.7969	-201.367	55.5051	-6.73972	-235.337	20.3934	-14.7675	-247.663	27.0189	11.7689	-254.056	44.3212	-11.64	
216	1.8	-240.99	73.3401	-0.0630517	-231.426	81.9743	-30.2183	-227.326	84.6033	-50.055	-220.59	81.3354	-71.2809	-230.588	55.4636	-64.6501	-203.009	66.1489	-64.5573	-208.336	70.9832	-37.3469	-216.86	42.4554	-61.1234	-190.425	58.7662	-55.2529	-205.994	59.3428	-26.1425	-204.358	30.3236	-47.8811	-186.779	49.1407	-37.3154	-206.097	55.9211	-17.3067	-197.234	21.7923	-37.5386	-184.9	40.5153	-30.8715	-201.476	53.6193	-12.306	-240.423	22.6869	-14.6412	-243.63	24.9912	12.0499	-253.537	44.6276	-7.80041	
217	1.80833	-242.46	75.5134	-4.46453	-234.307	81.6095	-30.4941	-230.935	82.5486	-48.9968	-226.905	78.24	-70.4538	-236.814	54.5911	-65.4378	-212.401	61.9804	-71.8556	-210.817	72.0374	-41.9306	-219.335	39.7426	-64.5112	-196.592	55.1355	-60.3199	-206.63	60.0181	-29.2265	-206.572	29.6321	-51.0707	-189.386	45.6549	-42.358	-207.58	55.7885	-19.239	-202.319	18.6439	-36.4089	-186.024	37.2621	-32.137	-204.08	49.3944	-13.6192	-242.221	21.888	-12.1105	-242.515	27.1272	16.1232	-254.177	44.3143	-4.64775	
218	1.81667	-242.973	73.8044	-2.07672	-237.067	81.4215	-26.477	-237.888	80.2169	-49.7847	-234.45	78.7373	-71.4265	-244.248	51.4711	-61.4655	-220.842	59.5733	-72.7368	-213.579	71.4858	-44.2351	-226.164	35.766	-62.7481	-202.818	50.2544	-62.3727	-210.623	58.7954	-30.1679	-213.35	25.974	-49.1521	-195.625	48.3008	-45.1294	-204.916	54.4001	-21.7579	-204.976	15.5868	-35.6272	-193.759	40.2416	-35.6362	-207.257	50.2437	-14.6248	-242.596	21.0309	-7.93512	-242.363	24.5708	18.4406	-256.166	43.1928	1.99278	
219	1.825	-243.498	73.0757	1.21025	-241.017	82.3099	-25.1644	-245.164	79.4008	-50.9563	-241.528	78.1093	-67.7062	-251.946	50.5622	-58.3779	-227.914	57.9011	-72.6599	-218.552	70.674	-43.0115	-234.318	35.5055	-58.7113	-208.724	48.1927	-63.3198	-212.361	57.507	-31.1851	-216.744	27.0883	-51.9656	-202.888	46.1681	-48.8474	-209.669	54.383	-20.5815	-211.453	18.8548	-37.7987	-195.57	36.8956	-36.6691	-209.376	48.4383	-18.2283	-242.234	20.5591	-6.01461	-243.604	26.5122	20.839	-256.082	42.4704	2.497	
220	1.83333	-244.835	75.5775	3.97474	-244.453	82.0514	-23.2481	-248.924	83.3226	-46.1101	-250.298	76.9672	-66.9073	-257.559	49.7658	-55.1002	-235.154	60.1437	-70.356	-222.048	71.8173	-47.6559	-244.04	37.3093	-56.1349	-218.203	51.7356	-64.5517	-219.738	60.0729	-31.2742	-224.391	25.7067	-52.218	-206.517	43.0946	-48.6089	-212.71	52.5975	-23.4388	-212.736	17.2233	-40.839	-201.593	36.9381	-39.0304	-215.353	47.2787	-16.6164	-243.535	18.3721	-4.26031	-242.377	29.2143	20.6794	-258.788	45.4282	5.47722	
221	1.84167	-246.212	77.5755	6.3149	-248.742	82.7501	-23.004	-255.971	81.7242	-45.803	-258.903	79.4487	-65.5219	-264.498	49.723	-50.322	-245.309	58.369	-69.06	-227.628	69.9468	-45.8819	-252.35	37.6163	-55.2779	-224.617	49.0604	-62.7604	-224.497	57.7324	-29.6684	-234.991	27.3277	-49.6687	-214.434	44.1671	-48.623	-217.797	50.7865	-20.2313	-223.145	19.0647	-40.583	-208.041	36.6416	-39.2473	-215.979	45.1859	-14.3851	-248.402	21.6472	-2.11578	-240.81	26.9671	29.1218	-261.549	47.6031	9.1014	
222	1.85	-246.536	76.3978	7.94661	-252.354	82.3399	-21.3113	-262.538	81.988	-42.6774	-267.734	78.8241	-63.6871	-273.005	53.0997	-45.0665	-255.116	60.9322	-66.5662	-233.408	71.4364	-47.4851	-260.216	37.6687	-49.4344	-233.574	51.0853	-61.6276	-228.774	56.9746	-29.232	-242.754	28.229	-48.9566	-221.566	43.3864	-49.6707	-220.026	50.0577	-21.7543	-231.323	16.028	-35.3563	-213.711	36.7634	-38.1164	-219.881	44.309	-13.2631	-251.2	20.3088	1.60051	-241.89	30.2302	28.187	-258.555	46.5093	15.8487	
223	1.85833	-248.548	78.3382	10.1548	-251.284	83.9042	-15.3763	-263.405	80.4898	-35.6529	-272.263	82.7779	-57.4332	-278.761	54.775	-42.3363	-260.735	59.1374	-63.5999	-237.136	68.1283	-44.6559	-264.627	36.6952	-48.1103	-242.966	50.749	-61.8958	-232.858	59.9429	-29.355	-251.548	28.7554	-45.1025	-228.391	44.6328	-47.432	-225.953	51.568	-23.5575	-238.708	18.7981	-38.9312	-224.038	36.9185	-39.758	-224.272	44.1853	-14.0617	-258.196	23.9552	5.63272	-244.996	25.5965	29.3147	-260.32	47.4415	17.3768	
224	1.86667	-249.183	76.7353	10.8824	-257.202	80.6797	-15.6347	-266.47	87.1474	-35.4055	-275.62	85.0279	-54.8218	-284.127	57.5976	-40.2075	-264.346	61.804	-61.1552	-242.359	70.5675	-42.1711	-271.131	39.1869	-47.4234	-245.521	49.4671	-58.7574	-236.925	60.8699	-29.1551	-257.863	27.32	-40.3858	-233.081	42.6077	-47.686	-230.246	51.7109	-22.6377	-245.346	15.2624	-37.7227	-227.877	32.9577	-40.5527	-229.308	44.796	-14.1932	-260.241	22.2784	8.82833	-247.893	28.1001	33.2773	-266.269	51.2796	19.4013	
225	1.875	-250.51	79.799	12.9301	-257.542	88.3017	-12.6141	-266.555	85.3886	-29.9329	-280.297	85.8335	-53.9401	-287.982	59.7464	-39.8347	-268.709	67.225	-58.3741	-245.72	66.7083	-43.4818	-279.113	44.0242	-40.7148	-252.953	48.7546	-57.5363	-239.808	58.6607	-30.0299	-263.205	28.595	-43.3526	-242.703	45.8807	-47.0151	-233.728	50.2903	-22.4863	-254.509	19.3727	-35.5643	-236.637	33.3032	-39.3586	-232.699	43.989	-14.0231	-266.541	24.8323	11.5769	-248.74	30.5377	34.1422	-267.203	53.1934	21.7851	
226	1.88333	-250.783	80.1548	13.7063	-257.429	84.8297	-11.6511	-270.429	91.6784	-32.6139	-281.504	88.3664	-51.9547	-290.673	66.1319	-33.9383	-272.439	68.631	-56.3034	-248.111	69.7112	-41.2557	-283.7	48.6307	-40.4804	-256.413	53.1609	-54.6096	-243.854	59.353	-26.4445	-272.381	35.0189	-40.5391	-247.967	42.3805	-45.7198	-239.874	50.5304	-18.8354	-262.724	18.0256	-35.5028	-242.471	31.1631	-38.4113	-240.453	43.5398	-17.1185	-273.574	25.0087	10.3312	-256.886	32.3574	33.9284	-268.547	53.491	25.3359	
227	1.89167	-248.98	75.9259	16.4689	-257.079	85.8507	-8.32797	-268.668	90.3978	-28.1157	-280.425	91.8445	-47.6797	-293.778	72.9261	-29.7217	-278.549	74.7521	-54.0632	-251.27	70.7799	-36.9253	-289.72	56.1812	-37.939	-262.431	57.3528	-53.3757	-246.853	59.0546	-25.2507	-280.811	35.7265	-40.2945	-255.196	45.3574	-44.8634	-244.496	47.7722	-17.5723	-275.716	22.2712	-29.6211	-254.98	29.6164	-39.5588	-242.758	39.6039	-16.98	-284.024	33.8477	13.5272	-262.823	30.8974	34.485	-275.205	60.2487	26.8283	
228	1.9	-249.368	75.4312	18.1464	-253.884	85.2648	-6.01108	-265.892	92.0757	-25.7382	-276.941	100.755	-46.3224	-295.428	77.9462	-31.2998	-279.897	76.14	-52.1408	-252.292	70.4799	-35.0765	-294.461	61.0312	-36.8574	-269.116	56.1899	-51.261	-253.117	54.0422	-25.6188	-290.829	38.6677	-33.478	-264.05	45.5046	-43.4898	-251.146	46.6961	-21.7632	-287.284	23.6092	-28.2277	-262.137	31.3668	-37.0948	-256.37	40.9727	-14.1554	-290.584	35.9068	15.8227	-272.021	34.0926	37.29	-275.428	62.2272	29.4336	
229	1.90833	-250.323	71.3595	17.9249	-251.714	83.6703	-5.83534	-263.719	92.4401	-24.5427	-276.559	102.209	-45.3384	-293.508	87.7684	-27.4414	-279.621	79.829	-51.1749	-256.798	67.6898	-37.3567	-297.645	68.1827	-31.6625	-271.978	58.334	-50.2936	-258.498	50.906	-24.6675	-298.293	46.1782	-34.44	-271.969	41.5848	-41.8913	-259.55	41.4872	-15.0512	-297.142	30.7245	-29.7875	-277.237	31.0578	-37.5595	-261.449	36.0026	-13.2126	-294.984	43.6272	17.5956	-279.497	33.9057	38.9887	-280.938	62.8022	27.9076	
230	1.91667	-249.337	68.2052	18.4201	-255.007	81.5429	-7.02902	-262.558	91.7556	-24.6909	-273.602	100.778	-43.5266	-292.356	89.8991	-25.3256	-279.89	77.8047	-50.3941	-259.576	61.817	-34.4598	-302.169	68.6215	-31.4243	-278.209	57.6802	-49.4878	-262.644	51.8582	-19.44	-301.735	54.7598	-31.3425	-281.928	40.9308	-41.6182	-266.016	42.4864	-17.2954	-308.068	35.3896	-24.6966	-283.066	33.1292	-33.7981	-271.794	34.8276	-9.85464	-303.103	50.6286	19.1272	-284.583	42.4007	38.1152	-280.961	65.8333	30.5725	
231	1.925	-252.947	64.7705	17.3675	-251.095	80.7965	-7.65944	-261.199	90.4897	-24.7138	-267.588	99.5844	-43.1445	-289.073	92.7275	-27.5835	-280.711	79.8873	-49.9184	-263.847	57.1088	-31.3742	-298.679	76.137	-32.9822	-280.251	56.6669	-46.4367	-267.698	49.3568	-17.7063	-306.311	57.658	-31.0758	-288.036	40.9046	-38.7276	-274.172	40.1745	-14.0003	-312.996	43.9669	-20.248	-293.123	35.3256	-32.3388	-278.319	33.6092	-12.9054	-304.925	56.7407	21.569	-290.551	43.9683	41.0852	-280.665	67.6464	30.7586	
232	1.93333	-252.77	61.3876	17.3219	-254.639	73.4909	-6.82699	-258.134	86.7055	-24.7034	-264.773	94.7382	-41.7083	-288.152	93.2123	-28.1777	-279.654	80.0213	-50.0625	-264.806	59.1087	-35.2837	-301.932	76.852	-32.969	-284.39	57.3815	-47.0903	-273.146	46.5818	-21.4959	-311.237	59.1449	-31.25	-290.94	45.6389	-37.72	-279.417	40.4007	-11.7207	-316.35	49.5648	-23.0103	-298.701	34.906	-30.4417	-284.331	35.5495	-7.02099	-303.997	59.258	23.7412	-293.812	45.1009	41.9283	-278.638	66.9522	33.4943	
233	1.94167	-252.975	54.5561	19.0657	-252.025	68.4136	-5.96095	-253.573	82.0788	-25.0856	-266.051	96.2282	-45.0821	-284.158	93.5615	-26.0181	-280.612	77.9604	-50.8555	-269.198	55.2618	-34.0051	-299.567	80.518	-29.3354	-290.877	59.9445	-47.8833	-277.556	47.4058	-17.3962	-310.315	67.4405	-25.6224	-298.068	45.1483	-37.6827	-282.374	41.9175	-10.1567	-320.095	54.7058	-20.0942	-301.763	39.2614	-29.2852	-291.464	34.6941	-9.35675	-309.847	63.0131	23.8649	-296.846	48.2246	43.2659	-281.087	70.6263	30.0965	
234	1.95	-254.003	54.8012	17.4533	-249.726	63.2886	-6.48927	-252.711	79.9026	-25.6106	-263.636	88.5538	-42.167	-281.383	94.6349	-28.5138	-279.79	76.3742	-50.4243	-268.216	54.7868	-35.0064	-297.679	83.3844	-33.0752	-289.605	58.3521	-46.2447	-280.053	47.086	-20.1211	-311.126	69.5686	-30.9605	-299.058	49.5486	-37.2069	-288.295	41.1091	-10.5811	-320.19	60.8729	-18.8278	-308.655	42.0191	-30.1551	-292.915	35.9392	-8.94157	-306.305	69.708	22.9973	-295.791	53.8926	43.4613	-278.334	70.3857	31.7593	
235	1.95833	-253.922	47.4497	20.3557	-246.724	61.3713	-6.52062	-248.722	73.9436	-26.2698	-266.091	85.3594	-42.4871	-278.703	94.5554	-27.0338	-278.192	82.278	-50.9364	-268.707	53.1707	-36.9652	-296.475	85.1746	-33.8411	-288.183	60.9034	-47.6118	-282.302	46.8979	-21.3591	-310.439	73.4703	-30.0032	-299.176	50.8535	-37.0422	-290.981	40.8099	-13.8733	-322.913	65.3388	-20.6477	-309.532	45.8871	-29.7172	-297.134	37.8845	-12.3217	-305.299	70.8964	22.9535	-299.951	53.1124	44.3244	-273.333	72.3892	30.3263	
236	1.96667	-251.189	44.2614	18.671	-243.641	56.395	-8.68836	-250.829	71.828	-28.5167	-272.334	80.4757	-41.9506	-266.423	94.374	-30.5044	-272.393	82.4266	-52.2204	-272.821	51.2342	-41.751	-287.198	88.3306	-29.8185	-289.292	63.0343	-48.6677	-282.737	47.4176	-25.1181	-303.728	79.3469	-27.6193	-300.418	51.3878	-37.6264	-292.445	42.6719	-13.0742	-320.532	71.6677	-20.0807	-308.297	49.2796	-31.1043	-296.024	41.1743	-10.408	-297.689	74.7655	23.3229	-298.104	59.4962	43.4275	-272.226	69.7081	29.7357	
237	1.975	-255.895	45.9447	17.2525	-244.646	56.191	-10.0785	-254.211	67.5293	-26.1069	-273.784	77.2053	-41.0402	-260.081	92.8479	-31.7612	-263.468	82.6337	-53.662	-271.592	53.8924	-47.5414	-279.582	89.9149	-34.3642	-282.931	66.7545	-52.1273	-282.228	48.1489	-25.0149	-299.901	82.031	-29.608	-297.511	57.6381	-41.2597	-288.77	44.3507	-17.5424	-310.525	75.0458	-23.0847	-309.382	55.2823	-32.8594	-298.021	42.6907	-8.74139	-296.967	77.6137	20.7066	-293.115	63.5944	41.1417	-270.657	69.5612	30.4253	
238	1.98333	-250.465	40.7458	17.5515	-241.059	48.6694	-9.07682	-246.683	65.6624	-30.4195	-267.278	77.0575	-40.7376	-250.962	89.4066	-29.8673	-258.873	77.4484	-56.2233	-265.105	50.8173	-47.9399	-274.148	90.0233	-35.5076	-283.77	67.3494	-51.8555	-278.36	48.4847	-25.9603	-292.168	82.958	-32.9593	-293.662	60.2418	-42.0501	-288.445	45.5445	-17.6584	-309.031	78.9253	-24.7273	-304.084	56.3344	-31.821	-297.713	44.8154	-10.8989	-288.12	78.5473	20.6564	-291.421	67.1002	40.3627	-264.231	64.5102	29.572	
